<svg xmlns="http://www.w3.org/2000/svg" viewBox="0 0 512 490.64"><defs><style>.cls-1{fill:#e6e5e5;}</style></defs><g id="Layer_2" data-name="Layer 2"><g id="Bold"><path class="cls-1" d="M256,0C114.6,0,0,112.6,0,251.5,0,362.7,73.3,456.9,175,490.2c12.8,2.4,17.5-5.4,17.5-12.1,0-6-.2-21.8-.3-42.8C121,450.5,106,401.6,106,401.6c-11.6-29-28.5-36.8-28.5-36.8-23.2-15.6,1.8-15.3,1.8-15.3,25.7,1.7,39.2,25.9,39.2,25.9,22.8,38.5,59.9,27.3,74.6,20.9,2.3-16.3,8.9-27.3,16.2-33.6-56.9-6.3-116.6-27.9-116.6-124.3,0-27.5,9.9-49.9,26.3-67.5-2.9-6.4-11.5-31.9,2.2-66.6,0,0,21.4-6.7,70.4,25.8a245.19,245.19,0,0,1,128,0c48.6-32.5,70.1-25.8,70.1-25.8,13.8,34.6,5.1,60.2,2.6,66.6,16.3,17.6,26.2,40,26.2,67.5,0,96.6-59.8,117.9-116.8,124.1,9,7.6,17.3,23,17.3,46.5,0,33.7-.3,60.7-.3,68.9,0,6.6,4.5,14.5,17.6,11.9C438.7,456.9,512,362.5,512,251.5,512,112.6,397.4,0,256,0Z"/></g></g></svg>